<?xml version="1.0" encoding="UTF-8"?>
<svg width="22px" height="23px" viewBox="0 0 22 23" version="1.1" xmlns="http://www.w3.org/2000/svg" xmlns:xlink="http://www.w3.org/1999/xlink">
    <title>export</title>
    <g id="Welcome" stroke="none" stroke-width="1" fill="none" fill-rule="evenodd">
        <g id="Coverify-black" transform="translate(-62.000000, -783.000000)" fill="#FFFFFF" fill-rule="nonzero">
            <g id="Canvas" transform="translate(38.000000, 96.000000)">
                <g id="Group-6-Copy-2" transform="translate(1.000000, 673.000000)">
                    <g id="export" transform="translate(23.000000, 14.000000)">
                        <path d="M19.6908986,4.107395 L19.6902435,4.107395 C13.9544604,4.11593761 7.08069819,4.1318495 6.90284402,4.1599955 C5.81907104,4.3249306 5.01200433,5.29292073 5.00195284,6.439911 L5.00003335,10.8305538 C4.99795226,13.7544126 4.99859209,16.6762038 5.00195284,19.5959274 C5.02136482,20.9671761 6.07282828,22.0767424 7.38186812,22.1073749 L19.7988584,22.1073749 C20.2469192,22.1094179 20.6829366,21.955504 21.0383969,21.669798 C21.6635776,21.174071 22.0186887,20.390189 21.9898841,19.5694591 C21.9988396,17.4165196 21.9988396,6.62401276 21.9988396,6.51529522 C21.9988396,5.05252984 21.0929353,4.107395 19.6908986,4.107395 Z M21.1709891,19.5674555 C21.1979433,20.1201685 20.9629605,20.6512573 20.5429032,20.9870035 C20.3294365,21.1583104 20.0677791,21.250682 19.7988584,21.2496781 L7.38539265,21.2496781 C6.52841246,21.2175696 5.84313294,20.4927807 5.82085441,19.5949291 C5.81494526,16.674748 5.81430871,13.7535137 5.81894475,10.8312262 L5.82086424,6.439911 C5.8291565,5.7251749 6.32874561,5.1210683 7.00298505,5.01048238 C7.35565366,4.98820298 16.2814488,4.97010912 19.6913801,4.96508648 C20.6513413,4.96525116 21.1799445,5.51572441 21.1799445,6.51529522 C21.1799445,6.62401962 21.1799445,17.4148454 21.1709891,19.5674486 L21.1709891,19.5674555 Z" id="Shape"></path>
                        <path d="M1.93874965,17.2666919 C1.29078322,17.0344509 0.847298429,16.4067282 0.824545946,15.689612 C0.820373281,12.7523734 0.819891228,9.81378866 0.823099788,6.87385789 L0.824545946,2.45359026 C0.833456104,1.73468819 1.33692359,1.1278051 2.01515224,1.01842543 C2.37626017,0.994835049 11.3491197,0.975627959 14.7753872,0.970229955 C15.2967024,0.970229955 15.9656773,1.1365637 16.1926384,1.92930745 C16.2349335,2.07693856 16.3491888,2.18971441 16.4923654,2.2251534 C16.6355421,2.26059239 16.7858881,2.21331052 16.8867696,2.10111839 C16.9876511,1.98892627 17.0237418,1.82886855 16.9814467,1.68123744 C16.6949724,0.681039859 15.8908822,0.107395 14.7747448,0.107395 C9.00698298,0.116492914 2.09413091,0.133515262 1.91349294,0.162838432 C0.823730396,0.327200717 0.0114720472,1.30010684 0.000993625031,2.45359026 L-0.000459121264,6.87351965 C-0.00174605902,9.81530728 -0.00116043453,12.7542291 0.000993625031,15.6902851 C0.0207341979,16.7782484 0.690479085,17.7360195 1.67463971,18.0836887 C1.81422953,18.1342809 1.96899071,18.1026402 2.08018564,18.0007755 C2.19138058,17.8989108 2.24196361,17.7424375 2.21273659,17.5907429 C2.18350957,17.4390483 2.07895288,17.3153866 1.93874965,17.2666919 Z" id="Path"></path>
                        <path d="M13.4988396,17.107395 C13.6867494,17.107395 13.839256,16.9280904 13.839256,16.7071615 L13.839256,9.50035756 L15.4124903,11.4358866 C15.4793821,11.5181346 15.5689116,11.5595588 15.6586114,11.5595588 C15.7432048,11.5595588 15.8277983,11.5227373 15.8936689,11.4486941 C16.029495,11.2958049 16.0344311,11.0426572 15.9045622,10.882764 L13.7449606,8.22581408 C13.6164534,8.06792197 13.3812257,8.06792197 13.2527185,8.22581408 L11.0931169,10.8829641 C10.9632481,11.0428574 10.9681841,11.296005 11.1040103,11.4488942 C11.2401768,11.6017834 11.4556604,11.5957799 11.585359,11.4360867 L13.1584232,9.50035756 L13.1584232,16.7071615 C13.1584232,16.9280904 13.3109297,17.107395 13.4988396,17.107395 Z" id="Path"></path>
                    </g>
                </g>
            </g>
        </g>
    </g>
</svg>