<?xml version="1.0" encoding="UTF-8"?>
<svg width="26px" height="26px" viewBox="0 0 26 26" version="1.1" xmlns="http://www.w3.org/2000/svg" xmlns:xlink="http://www.w3.org/1999/xlink">
    <title>spotify</title>
    <g id="Welcome" stroke="none" stroke-width="1" fill="none" fill-rule="evenodd">
        <g id="Coverify-black" transform="translate(-470.000000, -781.000000)" fill="currentColor" fill-rule="nonzero">
            <g id="Canvas" transform="translate(38.000000, 96.000000)">
                <g id="Group-6" transform="translate(423.000000, 676.000000)">
                    <g id="Spotify_logo_without_text" transform="translate(9.000000, 9.000000)">
                        <path d="M12.9999224,0 C5.82041591,0 0,5.82039968 0,13.0000776 C0,20.180066 5.82041591,26 12.9999224,26 C20.180205,26 26,20.180066 26,13.0000776 C26,5.8208654 20.180205,0.000620958545 12.9997671,0.000620958545 L12.9999224,0 Z M18.8773234,18.5622431 C18.6384047,18.9929615 18.1255261,19.1295308 17.7336995,18.8651467 C14.6019541,16.76233 10.6594781,16.2860884 6.0164927,17.45218 C5.56907774,17.5642368 5.12309629,17.2560805 5.02115768,16.7640809 C4.91874122,16.2720813 5.19795746,15.7818326 5.64648738,15.6697758 C10.7274903,14.3932032 15.085844,14.9431572 18.6017705,17.3051053 C18.9935971,17.5694895 19.1178348,18.1315246 18.8773234,18.5622431 L18.8773234,18.5622431 Z M20.8481841,15.5537795 C20.5511956,15.993433 19.9195058,16.1321204 19.4370959,15.8618944 C15.8999469,13.8832394 10.5081126,13.3103316 6.32434586,14.4658696 C5.78175256,14.6149943 5.20867472,14.3367616 5.04399538,13.8439208 C4.88057313,13.3502221 5.18651844,12.8297868 5.72816892,12.6796613 C10.5071698,11.360272 16.4483543,11.999378 20.5103401,14.2705634 C20.99275,14.5407894 21.1451727,15.1155559 20.8481841,15.5539225 L20.8481841,15.5537795 Z M21.114052,11.8229123 C16.8130654,9.24058234 9.71699526,9.00314523 5.61058089,10.2629795 C4.95117064,10.4651393 4.25383395,10.0888482 4.054003,9.42228456 C3.85417206,8.75539876 4.22610621,8.05098051 4.88599452,7.84833743 C9.59986946,6.40180737 17.4361428,6.68128729 22.3879344,9.65279508 C22.9823279,10.0086286 23.1767408,10.7829571 22.8245667,11.3817046 C22.4739861,11.9812574 21.7058958,12.1789069 21.1146894,11.8229123 L21.114052,11.8229123 Z" id="spotify"></path>
                    </g>
                </g>
            </g>
        </g>
    </g>
</svg>