<?xml version="1.0" encoding="UTF-8"?>
<svg width="132px" height="29px" viewBox="0 0 132 29" version="1.1" xmlns="http://www.w3.org/2000/svg" xmlns:xlink="http://www.w3.org/1999/xlink">
    <title>logo</title>
    <g id="Welcome" stroke="none" stroke-width="1" fill="none" fill-rule="evenodd">
        <g id="Coverify-black" transform="translate(-40.000000, -11.000000)">
            <g id="logo" transform="translate(40.000000, 12.000000)">
                <path d="M64.4500849,11.5271833 C64.0276544,8.02175188 61.3744948,6.00594353 57.8616523,6.00594353 C53.8522689,6.00594353 50.791501,8.83696849 50.791501,13.8023788 C50.791501,18.752967 53.8003913,21.5988141 57.8616523,21.5988141 C61.752459,21.5988141 64.101765,19.0123541 64.4500849,16.2183844 L61.2040405,16.2035623 C60.900187,17.8265843 59.6254847,18.7603781 57.9135297,18.7603781 C55.6086901,18.7603781 54.0449563,17.0484231 54.0449563,13.8023788 C54.0449563,10.6452672 55.5864569,8.84437955 57.935763,8.84437955 C59.6921842,8.84437955 60.9594755,9.8596948 61.2040405,11.5271833 L64.4500849,11.5271833 Z M71.1164424,21.6136362 C74.5699963,21.6136362 76.7192038,19.249508 76.7192038,15.7440765 C76.7192038,12.2164119 74.5699963,9.8596948 71.1164424,9.8596948 C67.6628883,9.8596948 65.5136809,12.2164119 65.5136809,15.7440765 C65.5136809,19.249508 67.6628883,21.6136362 71.1164424,21.6136362 Z M71.1312645,19.1679863 C69.5378866,19.1679863 68.7226699,17.7080075 68.7226699,15.7218434 C68.7226699,13.7356792 69.5378866,12.2682893 71.1312645,12.2682893 C72.6949981,12.2682893 73.5102148,13.7356792 73.5102148,15.7218434 C73.5102148,17.7080075 72.6949981,19.1679863 71.1312645,19.1679863 Z M88.29168,10.007916 L84.949292,10.007916 L82.5925748,18.1526711 L82.4739979,18.1526711 L80.1098697,10.007916 L76.7748927,10.007916 L80.7546318,21.3913043 L84.3119407,21.3913043 L88.29168,10.007916 Z M93.9945962,21.6136362 C96.810799,21.6136362 98.7080304,20.2425901 99.1526939,18.1304379 L96.2327363,17.9377503 C95.9140607,18.8048443 95.0988442,19.256919 94.0464736,19.256919 C92.4876497,19.256919 91.4925273,18.2379203 91.4678929,16.5781628 L91.4674247,16.5074157 L99.2193936,16.5074157 L99.2193936,15.6403217 C99.2193936,11.7717483 96.8774986,9.8596948 93.8686082,9.8596948 C90.5188089,9.8596948 88.3473683,12.2386451 88.3473683,15.7514876 C88.3473683,19.3606739 90.4891647,21.6136362 93.9945962,21.6136362 Z M91.4674247,14.5508958 C91.5341242,13.2539603 92.5197951,12.2164119 93.9204856,12.2164119 C95.2915317,12.2164119 96.2401473,13.1946718 96.2475584,14.5508958 L91.4674247,14.5508958 Z M100.557196,21.3913043 L103.714307,21.3913043 L103.714307,14.9510931 C103.714307,13.5504027 104.737034,12.5869649 106.130313,12.5869649 C106.567566,12.5869649 107.167861,12.6610755 107.464304,12.7574193 L107.464304,9.95603857 C107.182683,9.88933903 106.789897,9.84487268 106.471222,9.84487268 C105.196519,9.84487268 104.15156,10.5859787 103.736541,11.9940801 L103.617964,11.9940801 L103.617964,10.007916 L100.557196,10.007916 L100.557196,21.3913043 Z M108.36485,21.3913043 L111.521961,21.3913043 L111.521961,10.007916 L108.36485,10.007916 L108.36485,21.3913043 Z M109.950817,8.54052609 C110.892021,8.54052609 111.662771,7.82165325 111.662771,6.9397371 C111.662771,6.065232 110.892021,5.34635918 109.950817,5.34635918 C109.017023,5.34635918 108.246273,6.065232 108.246273,6.9397371 C108.246273,7.82165325 109.017023,8.54052609 109.950817,8.54052609 Z M119.440779,10.007916 L117.180405,10.007916 L117.180405,9.2445768 C117.180405,8.47382656 117.49167,8.02175188 118.418052,8.02175188 C118.796016,8.02175188 119.181391,8.10327355 119.433367,8.1847952 L119.989197,5.81325597 L119.917285,5.79225228 C119.496976,5.67328675 118.67384,5.50199144 117.758468,5.50199144 C115.616671,5.50199144 114.023294,6.70999424 114.023294,9.18528831 L114.023294,10.007916 L112.415094,10.007916 L112.415094,12.3794552 L114.023294,12.3794552 L114.023294,21.3913043 L117.180405,21.3913043 L117.180405,12.3794552 L119.440779,12.3794552 L119.440779,10.007916 Z M122.594286,25.6378417 C121.793892,25.6378417 121.060197,25.5044428 120.608122,25.3191663 L121.319584,22.9550381 L121.427805,22.9879179 C122.480955,23.2974704 123.209161,23.1954723 123.639246,22.1991099 L123.824522,21.717391 L119.741028,10.007916 L123.061183,10.007916 L125.4179,18.3675918 L125.536477,18.3675918 L127.915427,10.007916 L131.257816,10.0227381 L126.833413,22.6215403 C126.196062,24.444661 124.943592,25.6378417 122.594286,25.6378417 Z" id="Coverify" fill="#FFFFFF" fill-rule="nonzero"></path>
                <path d="M26.6086957,23.4782609 C26.6086957,25.9755483 24.584244,28 22.0869565,28 L4.52173913,28 C2.02445157,28 0,25.9755483 0,23.4782609 L0,4.52173913 C0,2.02445157 2.02445157,0 4.52173913,0 L22.0869565,0 C24.584244,0 26.6086957,2.02445157 26.6086957,4.52173913 L26.6086957,9.2173913 C23.919309,9.2173913 21.7391304,11.3197064 21.7391304,13.9130435 C21.7391304,16.5063806 23.919309,18.6086957 26.6086957,18.6086957 L26.6086957,23.4782609 Z" id="Combined-Shape" fill="#FFFFFF" fill-rule="nonzero"></path>
                <path d="M30.0869565,26.4347826 C37.0025221,26.4347826 42.6086957,20.828609 42.6086957,13.9130435 C42.6086957,6.99747791 37.0025221,1.39130435 30.0869565,1.39130435" id="Oval" stroke="#FFFFFF" stroke-width="2.95652174" stroke-linecap="round"></path>
                <path d="M30.9565217,17.7391304 C33.0696111,17.7391304 34.7826087,16.026133 34.7826087,13.9130435 C34.7826087,11.799954 33.0696111,10.0869565 30.9565217,10.0869565" id="Oval" stroke="#FFFFFF" stroke-width="1.73913043" stroke-linecap="round"></path>
            </g>
        </g>
    </g>
</svg>