<?xml version="1.0" encoding="UTF-8"?>
<svg width="717px" height="685px" viewBox="0 0 717 685" version="1.1" xmlns="http://www.w3.org/2000/svg" xmlns:xlink="http://www.w3.org/1999/xlink">
    <title>Group 3</title>
    <defs>
        <path d="M632.084374,265.155425 C632.084374,301.160558 621.722227,335.285936 603.183147,365.831948 C599.979732,371.118758 596.533528,376.293305 592.844536,381.355588 C577.148585,402.925773 557.207522,422.389065 533.906397,439.071887 C532.480917,440.090087 531.044993,441.097845 529.598626,442.095159 C529.050364,442.47111 528.509935,442.847061 527.961673,443.223012 C525.682471,444.765977 523.377161,446.285445 521.045743,447.781417 C520.309506,448.251355 519.573268,448.713462 518.837031,449.175568 C518.210446,449.575016 517.576029,449.966631 516.941612,450.358247 C510.150998,454.556397 503.128026,458.527379 495.872696,462.271192 C495.081632,462.678472 494.282737,463.085752 493.483841,463.493032 C492.794598,463.837654 492.105354,464.190108 491.408279,464.53473 C490.922675,464.777531 490.42924,465.020333 489.943636,465.255302 C489.129076,465.662582 488.306683,466.06203 487.484291,466.453646 C485.34607,467.479678 483.192184,468.484825 481.022634,469.469085 C480.027931,469.923359 479.025395,470.377633 478.015027,470.816243 C478.006405,470.824508 477.995483,470.829969 477.983698,470.831908 C476.981162,471.278349 475.978626,471.716959 474.968258,472.147736 C474.043998,472.547184 473.112,472.946631 472.179955,473.330415 C469.375988,474.513094 466.548524,475.656611 463.697563,476.760967 C463.110139,476.995936 462.514884,477.223073 461.919628,477.45021 C461.097236,477.763503 460.282675,478.076795 459.45245,478.382255 C458.395088,478.773871 457.345559,479.165486 456.288197,479.549269 C455.301326,479.909556 454.314454,480.26201 453.319751,480.614464 L453.108279,480.684955 C452.113575,481.037409 451.118872,481.38203 450.116336,481.71882 C444.962707,483.488922 439.733334,485.14415 434.428217,486.684505 C433.762471,486.880312 433.096724,487.068288 432.430978,487.256263 C432.13335,487.350251 431.82789,487.436406 431.52243,487.51473 C430.747031,487.734034 429.971632,487.953339 429.188401,488.164811 C428.232859,488.438942 427.269485,488.697409 426.298279,488.948042 C423.596131,489.668615 420.88093,490.357858 418.152675,491.015773 C417.228463,491.24291 416.312082,491.462214 415.38787,491.673687 C415.371229,491.683498 415.352355,491.68889 415.333043,491.689351 C414.408831,491.900824 413.484618,492.112296 412.560405,492.323768 C411.268074,492.621396 409.960125,492.911192 408.652082,493.17749 C407.140446,493.506447 405.620978,493.81974 404.093677,494.133032 C403.145968,494.321008 402.198258,494.508983 401.250548,494.689126 C400.302839,494.877102 399.347258,495.057245 398.399587,495.229556 C393.62971,496.114607 388.820671,496.910892 383.972471,497.618411 C382.171039,497.876877 380.369608,498.127511 378.552512,498.370312 C377.440324,498.519126 376.320303,498.660108 375.200283,498.793257 C374.221244,498.910742 373.234373,499.028227 372.255334,499.137879 C371.276295,499.255364 370.297256,499.357184 369.310385,499.466836 L369.302553,499.466836 C369.208565,499.482501 369.114577,499.490333 369.020589,499.498165 C367.414966,499.670476 365.80151,499.827122 364.188054,499.983768 C363.240344,500.077756 362.292634,500.156079 361.337092,500.234402 C360.483371,500.312725 359.621816,500.383169 358.760262,500.445875 C356.183401,500.657347 353.598738,500.83749 351.006274,500.986304 C350.168217,501.04113 349.33016,501.088124 348.492103,501.127286 C346.706336,501.229106 344.920569,501.307468 343.12697,501.37792 C342.3829,501.409249 341.630998,501.440578 340.886929,501.464075 C338.881857,501.534566 336.868953,501.58156 334.856049,501.620721 C333.720364,501.644218 332.584679,501.659883 331.448994,501.667715 C330.101837,501.68338 328.754679,501.691212 327.407522,501.691212 C262.234863,501.691212 187.326643,479.369126 125.623698,446.919863 C110.113048,438.80944 95.1076129,429.767469 80.6897299,419.843564 C72.3404869,414.071151 64.4611819,408.134259 57.1458039,402.056386 C2.62508794,356.863952 -20.9736641,304.786918 22.7306299,265.155425 C28.3698939,260.040926 34.4451569,254.717565 40.9564179,249.185343 C45.8829409,244.995057 51.0261589,240.697729 56.3860699,236.293359 C132.727604,173.587879 249.734534,91.3329497 327.407522,28.6196373 C458.332375,-77.0852533 632.084374,134.520281 632.084374,265.155425 Z" id="path-1"></path>
    </defs>
    <g id="Page-1" stroke="none" stroke-width="1" fill="none" fill-rule="evenodd">
        <g id="Group-3" transform="translate(-0.000004, 0.787903)">
            <g id="Group-2" transform="translate(83.693427, 106.386755)">
                <mask id="mask-2" fill="white">
                    <use xlink:href="#path-1"></use>
                </mask>
                <use id="Path" fill="#1DB954" fill-rule="nonzero" xlink:href="#path-1"></use>
                <path d="M533.906381,440.071871 C479.620635,478.951462 407.085565,502.691197 327.407506,502.691197 C262.234848,502.691197 187.326627,480.369111 125.623682,447.919847 C130.503212,435.270665 137.301658,425.01817 146.755257,419.825348 C146.990226,419.692199 147.233028,419.559049 147.475829,419.441565 C151.513228,417.366576 155.970381,416.238895 160.508795,416.144162 C216.118202,414.5777 209.852353,477.236186 279.559919,391.080767 C322.91176,337.499929 372.020349,319.062669 405.589633,325.023057 C406.208386,325.13271 406.819306,325.250194 407.430226,325.375511 C426.885686,329.416984 440.803703,341.870358 444.821678,360.534755 C455.786913,411.444775 423.674439,452.172792 482.41677,439.641094 C499.413626,436.104285 516.971081,436.251175 533.906381,440.071871 Z" id="Path" fill="#FFFFFF" fill-rule="nonzero" mask="url(#mask-2)"></path>
                <path d="M499.906381,439.071871 C445.620635,477.951462 373.085565,501.691197 293.407506,501.691197 C228.234848,501.691197 153.326627,479.369111 91.6236819,446.919847 C96.5032119,434.270665 103.301658,424.01817 112.755257,418.825348 C112.990226,418.692199 113.233028,418.559049 113.475829,418.441565 C117.513228,416.366576 121.970381,415.238895 126.508795,415.144162 C182.118202,413.5777 175.852353,476.236186 245.559919,390.080767 C288.91176,336.499929 338.020349,318.062669 371.589633,324.023057 C372.208386,324.13271 372.819306,324.250194 373.430226,324.375511 C392.885686,328.416984 406.803703,340.870358 410.821678,359.534755 C421.786913,410.444775 389.674439,451.172792 448.41677,438.641094 C465.413626,435.104285 482.971081,435.251175 499.906381,439.071871 Z" id="Path" fill="#FFFFFF" fill-rule="nonzero" opacity="0.225585938" mask="url(#mask-2)"></path>
            </g>
            <g id="Group" transform="translate(314.846907, 0.000000)" fill-rule="nonzero">
                <path d="M120.491292,607 C88.4270332,589.028637 68.4659796,564.492785 61.1620413,534.074779 C55.7388518,511.490317 57.2973102,486.076246 65.7934402,458.538395 C72.0917951,438.235135 81.53505,419.057382 93.7753021,401.711673 C158.711293,309.299693 164.572115,249.08373 158.054159,214.841489 C150.907766,177.295776 127.689302,161.70273 127.455447,161.54974 L128.457762,160 C128.697454,160.156595 152.527725,176.112038 159.84603,214.419523 C164.064913,236.503959 162.080029,261.686071 153.946591,289.26593 C143.823774,323.590319 124.084459,361.781385 95.2771694,402.778567 C83.1484773,419.965608 73.7909881,438.967872 67.5493955,459.085392 C53.6148167,504.250722 51.6433998,566.295279 121.386327,605.38622 L120.491292,607 Z" id="Path" fill="#D0CDE1"></path>
                <path d="M63.420274,432 C38.0410864,417.866467 38.7477205,395.466768 43.8094922,379.164952 C46.0537644,371.974863 49.4189955,365.183352 53.7811751,359.040697 C76.6209058,326.742307 78.6849163,305.760827 76.3946837,293.846916 C73.9070604,280.909643 65.9272781,275.598327 65.8470645,275.546082 L66.8529274,274 C67.2075966,274.230074 75.5731326,279.798481 78.2072182,293.499344 C81.6371672,311.339588 73.926433,333.748738 55.2890732,360.105038 C51.0385288,366.089178 47.7593667,372.70567 45.5724651,379.710612 C40.713031,395.361403 40.0208215,416.857948 64.3188805,430.389973 L63.420274,432 Z" id="Path" fill="#D0CDE1"></path>
                <path d="M177.579734,235 L176.681118,233.378901 C200.979174,219.760853 200.286965,198.128386 195.427541,182.379528 C193.240641,175.330146 189.961481,168.671662 185.710934,162.649515 C167.073575,136.127009 159.362832,113.575702 162.792781,95.622646 C165.426866,81.8351463 173.792438,76.2315286 174.14708,76 L175.1543,77.5549584 C175.073634,77.6084144 167.053288,83.0235579 164.591352,96.0458128 C162.326353,108.028259 164.412891,129.124301 187.218832,161.578445 C191.580834,167.759882 194.946051,174.594159 197.190503,181.829499 C202.252284,198.234397 202.95891,220.775739 177.579734,235 Z" id="Path" fill="#D0CDE1"></path>
                <path d="M231.847892,142.515794 C223.497815,155.24322 206.35319,158.829556 193.554303,150.5261 C180.755415,142.222645 177.148942,125.173745 185.49902,112.446318 C193.849102,99.7188924 235.887934,86 235.887934,86 C235.887934,86 240.197964,129.788368 231.847892,142.515794 Z" id="Path" fill="#FFFFFF"></path>
                <path d="M221.847892,56.5157933 C213.497815,69.2432198 196.35319,72.8295563 183.554303,64.5261001 C170.755415,56.2226438 167.148942,39.1737448 175.49902,26.4463183 C183.849102,13.7188924 225.887934,0 225.887934,0 C225.887934,0 230.197964,43.7883673 221.847892,56.5157933 Z" id="Path" fill="#FFFFFF"></path>
                <path d="M220.026329,317.046698 C218.253053,316.629589 176.424086,306.869249 162.478018,313.533717 C150.388093,319.311483 143.903185,332.727403 146.865192,345.833397 C149.827198,358.939393 161.444892,368.234524 174.835527,368.212097 C176.917106,368.213524 178.992439,367.983482 181.023517,367.526104 C183.121316,367.055211 185.159805,366.34943 187.100679,365.422023 C201.046746,358.748285 219.850848,320.003534 220.645127,318.353638 L221.153097,317.315501 L220.026329,317.046698 Z M186.206017,363.608027 C172.940166,369.956597 157.063701,364.2983 150.74494,350.969867 C144.426179,337.641435 150.057908,321.690072 163.32376,315.341502 C166.553332,313.792843 171.48944,313.212097 177.122843,313.212097 C192.536713,313.212097 213.143589,317.590744 218.153097,318.706147 C215.024477,325.011409 198.261874,357.837422 186.206017,363.608027 L186.206017,363.608027 Z" id="Shape" fill="#D0CDE1"></path>
                <path d="M94.752913,160.212097 C87.6823513,160.223491 80.8642469,157.570448 75.643689,152.776291 C64.3277938,142.402664 57.6108463,100.140549 57.3301174,98.3464438 L57.1530971,97.212097 L58.2930031,97.2849024 C60.0953939,97.4004062 102.57225,100.234478 113.888146,110.608106 L113.888146,110.608106 C122.552183,118.543383 125.470403,131.018459 121.232486,142.004357 C116.994568,152.990255 106.473114,160.224941 94.7529492,160.212097 L94.752913,160.212097 Z M59.1530971,99.212097 C60.3246883,106.122192 66.8605823,142.273354 76.708267,151.271713 C87.5480462,161.167669 104.339678,160.387669 114.219467,149.529253 C124.099257,138.670839 123.328397,121.843155 112.497428,111.937519 L112.497428,111.937519 C102.649751,102.94005 66.1272264,99.745371 59.1530971,99.212097 Z" id="Shape" fill="#D0CDE1"></path>
                <path d="M55.9092035,226.279144 C67.2854787,236.709336 68.0942309,254.425814 57.7159591,265.857851 C47.3376885,277.289887 29.6992416,278.11192 18.3115743,267.694276 C6.9251788,257.266306 0,213 0,213 C0,213 44.5227795,215.851183 55.9092035,226.279144 Z" id="Path" fill="#FFFFFF"></path>
                <path d="M140.797307,227.500833 C139.236392,220.351554 132.891102,215.24179 125.53719,215.212097 C124.411966,215.216183 123.290302,215.338136 122.190753,215.575938 C114.016725,217.340568 99.488014,235.050538 98.8754147,235.796412 L98.1530971,236.678728 L99.1771435,237.188105 C99.9817508,237.588331 117.481969,246.211366 126.643525,246.211366 C127.374344,246.220132 128.103962,246.149985 128.819568,246.002158 C137.259748,244.179454 142.620231,235.899385 140.797252,227.500833 L140.797307,227.500833 Z M136.965699,238.124077 C135.007987,241.160376 131.898822,243.291294 128.336922,244.037948 C121.82224,245.437893 105.435728,237.99844 101.153097,235.979288 C104.20175,232.389685 116.015281,218.919697 122.539036,217.519752 C127.96078,216.358949 133.555578,218.543273 136.713788,223.053864 C139.871997,227.564456 139.971427,233.512694 136.965699,238.124077 L136.965699,238.124077 Z" id="Shape" fill="#D0CDE1"></path>
            </g>
            <ellipse id="Oval" fill="#FFFFFF" fill-rule="nonzero" opacity="0.0851934524" cx="330.692942" cy="652.827149" rx="326.998978" ry="7.59525812"></ellipse>
            <ellipse id="Oval" fill="#FFFFFF" fill-rule="nonzero" opacity="0.0327845982" cx="330.692942" cy="677.94992" rx="226.383906" ry="5.25825321"></ellipse>
            <path d="M5.65203443,413.787105 C5.65203443,413.787105 -5.31320074,439.633731 3.30234118,441.983424 C11.9178831,444.333118 15.8340386,413.787105 15.8340386,413.787105 L5.65203443,413.787105 Z" id="Path" fill="#FFB8B8" fill-rule="nonzero"></path>
            <polygon id="Path" fill="#000000" fill-rule="nonzero" points="38.1558895 271.630758 9.56795488 357.394561 3.30210621 403.605195 3.30210621 418.486586 19.749959 416.920124 19.749959 404.388426 45.5965848 325.282087"></polygon>
            <path d="M58.9117482,341.729846 L57.345286,358.960929 L107.472075,362.093854 L107.472075,323.715531 C107.472075,319.016144 58.9117482,341.729846 58.9117482,341.729846 Z" id="Path" fill="#FFB8B8" fill-rule="nonzero"></path>
            <path d="M33.0651224,607.245183 L30.7154292,629.175653 L56.5620549,626.82596 C56.5620549,626.82596 49.5129752,609.594876 48.7297441,607.245183 C47.946513,604.89549 33.0651224,607.245183 33.0651224,607.245183 Z" id="Path" fill="#FFB8B8" fill-rule="nonzero"></path>
            <polygon id="Path" fill="#FFB8B8" fill-rule="nonzero" points="119.220307 567.300492 116.087382 588.447731 132.535235 600.196197 130.968773 571.999878"></polygon>
            <path d="M71.4434455,347.995694 L57.345286,347.995694 L52.6458995,356.611236 C52.6458995,356.611236 22.0998872,378.541706 22.0998872,423.969109 L22.0998872,524.222688 C22.0998872,524.222688 21.3166561,595.496717 29.9321981,603.329028 L30.7925148,608.490904 L31.4986602,612.727801 L50.2962062,609.594876 C50.2962062,609.594876 48.7297441,603.329028 51.0794373,597.84641 C53.4291306,592.363792 49.5129752,561.81778 49.5129752,561.81778 L54.2123617,514.040684 L82.4086807,444.333118 L117.654079,494.459907 C117.654079,494.459907 113.737924,564.167473 115.304386,566.517167 C116.870848,568.86686 114.521155,575.91594 114.521155,575.91594 L134.885163,575.91594 L148.200092,482.711441 L118.437311,398.905715 C118.437311,398.905715 121.570235,360.527392 110.605,356.611236 C99.6397645,352.695081 71.4434455,347.995694 71.4434455,347.995694 Z" id="Path" fill="#0D0D15" fill-rule="nonzero"></path>
            <path d="M127.052852,590.014099 C127.052852,590.014099 124.487309,578.265633 119.895851,575.91594 C115.304394,573.566246 108.255306,579.832095 108.255306,579.832095 C108.255306,579.832095 89.4577604,583.74825 97.2900713,603.329028 L100.422996,608.028414 C100.422996,608.028414 105.905613,605.678721 105.905613,617.427187 C105.905613,629.175653 123.919928,640.140888 130.185777,640.140888 C136.451625,640.140888 138.801319,634.658271 137.234857,625.259498 C135.668394,615.860725 132.53547,591.330789 132.53547,591.330789 L127.052852,590.014099 Z" id="Path" fill="#000000" fill-rule="nonzero"></path>
            <path d="M47.8877785,620.229063 C47.8877785,620.229063 36.8337641,615.494369 32.2543607,617.867473 C27.6749574,620.240577 28.6818323,629.61803 28.6818323,629.61803 C28.6818323,629.61803 20.9526965,647.194848 41.4415204,652.19086 L47.0866506,652.369742 C47.0866506,652.369742 48.3580069,646.541892 57.9220182,653.365103 C67.4860295,660.188315 86.8746878,651.891845 90.5137361,646.791029 C94.1527843,641.690214 91.0542204,636.593251 82.493254,632.409889 C73.9322876,628.226526 52.1438327,616.53056 52.1438327,616.53056 L47.8877785,620.229063 Z" id="Path" fill="#000000" fill-rule="nonzero"></path>
            <circle id="Oval" fill="#FFB8B8" fill-rule="nonzero" cx="78.8841486" cy="219.154181" r="26.6298569"></circle>
            <polygon id="Path" fill="#FFB8B8" fill-rule="nonzero" points="63.6108997 229.727895 58.9115132 259.490676 87.1078322 261.840369 90.2407566 232.077588"></polygon>
            <path d="M110.780882,276.284341 C102.92843,263.458933 90.8922519,253.734778 76.7031712,248.752601 C74.5179016,247.99365 64.4812496,248.133214 58.4232626,248.046127 C50.3681655,247.935368 43.1602452,253.030512 40.5773424,260.661074 C33.3249045,281.993155 23.7307467,323.844944 52.645876,340.163383 L58.9117247,345.646001 L114.521132,329.981379 C114.521132,329.981379 110.604976,320.582606 112.954669,317.449682 C115.304363,314.316758 123.136674,295.519212 114.521132,282.204283 C113.178266,280.128909 111.930516,278.148673 110.780882,276.284341 Z" id="Path" fill="#000000" fill-rule="nonzero"></path>
            <path d="M113.346308,207.405715 C113.346308,207.405715 118.920196,169.759423 79.1155778,181.375374 C79.1155778,181.375374 50.9561098,175.647684 41.0102029,210.817461 L30.9150904,247.690414 L35.5360285,245.289091 L37.5785698,249.990396 L44.9531604,252.009417 L48.2451982,245.776088 L49.6325197,253.449082 L110.213384,260.665444 C110.213384,260.665444 83.3370758,244.066475 83.4592207,215.244307 L88.5323259,220.815712 L113.346308,207.405715 Z" id="Path" fill="#0D0D15" fill-rule="nonzero"></path>
            <path d="M73.6496003,178.855907 L78.9553017,178.855907 C80.7995061,178.855907 82.2945291,180.35093 82.2945291,182.195134 L82.2945291,219.583923 L70.3103729,219.583923 L70.3103729,182.195134 C70.3103729,180.35093 71.805396,178.855907 73.6496003,178.855907 L73.6496003,178.855907 Z" id="Path" fill="#1DB954" fill-rule="nonzero" transform="translate(76.302451, 199.219915) rotate(-11.101780) translate(-76.302451, -199.219915) "></path>
            <circle id="Oval" fill="#D0CDE1" fill-rule="nonzero" cx="83.5835351" cy="221.503874" r="14.0981595"></circle>
            <circle id="Oval" fill="#1DB954" fill-rule="nonzero" cx="83.5835351" cy="221.503874" r="7.83231084"></circle>
            <path d="M143.475697,436.323334 L147.273584,431.339635 L146.650618,430.864903 L149.211188,427.504802 C150.420699,425.917641 150.950161,423.915002 150.683095,421.93746 C150.416029,419.959917 149.374312,418.169466 147.787117,416.959998 L138.57531,409.940109 C136.988171,408.730567 134.985542,408.201065 133.007993,408.468093 C131.030445,408.735121 129.239973,409.776804 128.030474,411.363976 L106.293759,439.887819 C105.084243,441.474983 104.554775,443.477625 104.821835,445.455174 C105.088895,447.432723 106.130606,449.223183 107.717798,450.432663 L116.929614,457.452551 C118.516765,458.662087 120.519402,459.191579 122.496955,458.924542 C124.474508,458.657505 126.264981,457.615815 127.474481,456.028637 L137.630702,442.701177 L138.253668,443.175909 L142.051508,438.19221 L141.42855,437.717478 L142.852738,435.848595 L143.475697,436.323334 Z" id="Path" fill="#000000" fill-rule="nonzero"></path>
            <circle id="Oval" fill="#D0CDE1" fill-rule="nonzero" cx="136.060221" cy="422.794466" r="3.91615542"></circle>
            <path d="M105.122382,420.052954 C105.122382,420.052954 109.038538,452.165428 116.087617,450.598966 C123.136697,449.032504 121.570235,416.92003 116.087617,416.92003 C110.605,416.92003 105.122382,420.052954 105.122382,420.052954 Z" id="Path" fill="#FFB8B8" fill-rule="nonzero"></path>
            <path d="M80.8422185,265.75643 C80.8422185,265.75643 77.7092942,275.155203 79.2757564,290.036594 C80.8422185,304.917985 84.7583739,355.044774 84.7583739,355.044774 C84.7583739,355.044774 91.0242226,409.087719 100.422996,413.003874 L102.772689,423.969109 L120.787004,420.836185 L118.437311,407.521257 C119.373871,404.725766 119.373871,401.701205 118.437311,398.905715 C116.870848,394.206328 104.339151,272.80551 104.339151,272.80551 C104.339151,272.80551 101.206227,254.007964 80.8422185,265.75643 Z" id="Path" fill="#000000" fill-rule="nonzero"></path>
        </g>
    </g>
</svg>